<svg width="1620" height="715" viewBox="0 0 1620 715" fill="none" xmlns="http://www.w3.org/2000/svg">
<rect width="1620" height="715" rx="20" fill="#CFFCFF"/>
<path d="M1173.82 0H446.182C409.078 0 379 38.4533 379 85.8878V629.112C379 676.547 409.078 715 446.182 715H1173.82C1210.92 715 1241 676.547 1241 629.112V85.8878C1241 38.4533 1210.92 0 1173.82 0Z" fill="#CFFCFF"/>
<path d="M529.997 583.339C593.756 583.339 645.443 577.255 645.443 569.751C645.443 562.247 593.756 556.163 529.997 556.163C466.237 556.163 414.55 562.247 414.55 569.751C414.55 577.255 466.237 583.339 529.997 583.339Z" fill="url(#paint0_radial_28_2453)"/>
<path d="M720.208 581.465C778.502 581.465 825.759 575.381 825.759 567.877C825.759 560.373 778.502 554.289 720.208 554.289C661.914 554.289 614.657 560.373 614.657 567.877C614.657 575.381 661.914 581.465 720.208 581.465Z" fill="url(#paint1_radial_28_2453)"/>
<path d="M908.954 590.836C957.33 590.836 996.547 583.913 996.547 575.374C996.547 566.834 957.33 559.912 908.954 559.912C860.578 559.912 821.361 566.834 821.361 575.374C821.361 583.913 860.578 590.836 908.954 590.836Z" fill="url(#paint2_radial_28_2453)"/>
<path d="M1119.32 591.772C1179.84 591.772 1228.91 584.85 1228.91 576.31C1228.91 567.771 1179.84 560.848 1119.32 560.848C1058.8 560.848 1009.74 567.771 1009.74 576.31C1009.74 584.85 1058.8 591.772 1119.32 591.772Z" fill="url(#paint3_radial_28_2453)"/>
<path d="M1114.93 293.778C1179.09 293.778 1231.1 286.855 1231.1 278.316C1231.1 269.776 1179.09 262.854 1114.93 262.854C1050.76 262.854 998.746 269.776 998.746 278.316C998.746 286.855 1050.76 293.778 1114.93 293.778Z" fill="url(#paint4_radial_28_2453)"/>
<path d="M895.394 293.778C967.452 293.778 1025.87 286.855 1025.87 278.316C1025.87 269.776 967.452 262.854 895.394 262.854C823.335 262.854 764.921 269.776 764.921 278.316C764.921 286.855 823.335 293.778 895.394 293.778Z" fill="url(#paint5_radial_28_2453)"/>
<path d="M694.92 289.092C759.894 289.092 812.566 282.17 812.566 273.63C812.566 265.091 759.894 258.168 694.92 258.168C629.946 258.168 577.275 265.091 577.275 273.63C577.275 282.17 629.946 289.092 694.92 289.092Z" fill="url(#paint6_radial_28_2453)"/>
<path d="M497.745 279.722C556.241 279.722 603.662 274.058 603.662 267.071C603.662 260.084 556.241 254.42 497.745 254.42C439.248 254.42 391.827 260.084 391.827 267.071C391.827 274.058 439.248 279.722 497.745 279.722Z" fill="url(#paint7_radial_28_2453)"/>
<path d="M620.333 87.8964L625.076 179.348C625.076 179.348 618.753 222.799 621.519 244.02C620.729 243.01 655.902 251.094 666.178 250.083C676.453 249.073 707.675 259.683 719.927 259.178C732.178 258.673 775.651 244.525 775.651 244.525C775.651 244.525 774.243 227.473 773.28 223.305C772.229 218.753 757.43 207.971 742.193 209.137C736.165 209.599 731.35 204.279 728.226 202.589C717.951 197.031 692.262 171.769 689.1 159.137C685.938 146.506 687.519 113.159 684.753 100.023C681.986 86.8859 672.896 83.3491 620.333 87.8964Z" fill="#C87137"/>
<path d="M655.193 86.0119C648.544 85.9862 640.365 86.3538 630.32 87.094C630.421 90.4309 633.123 179.156 634.494 185.818C635.85 192.408 623.51 222.908 631.741 245.604C642.757 247.639 659.581 250.732 666.178 250.083C668.798 249.825 672.784 250.326 677.467 251.202C677.83 239.792 682.171 211.745 716.654 218.329C718.397 219.32 722.151 207.445 724.293 200.059C712.533 191.587 691.911 170.369 689.1 159.137C685.938 146.506 687.519 113.159 684.753 100.023C682.764 90.5806 677.509 86.0981 655.193 86.0119Z" fill="#AF6330"/>
<path opacity="0.179" d="M621.044 221.292C620.682 229.654 620.708 237.762 621.513 243.973C622.027 243.307 656.093 251.075 666.178 250.083C676.453 249.072 707.675 259.683 719.927 259.178C732.178 258.672 775.651 244.525 775.651 244.525C775.651 244.525 775.985 228.744 773.893 224.222C770.018 225.791 764.589 227.951 760.529 229.404C753.542 231.905 737.054 234.406 726.155 235.835C715.257 237.264 688.149 235.835 667.749 234.406C647.874 233.014 622.356 221.87 621.044 221.292ZM621.513 243.973C621.503 243.986 621.504 244.001 621.519 244.02C621.517 244.005 621.515 243.989 621.513 243.973Z" fill="black"/>
<path opacity="0.269" d="M632.252 86.9564C628.542 87.218 624.595 87.5275 620.333 87.8962L625.076 179.347C625.076 179.347 618.762 222.736 621.513 243.973C622.027 243.307 656.093 251.075 666.178 250.083C670.152 249.692 677.268 251.044 685.199 252.815C650.936 237.826 638.101 182.958 637.723 179.095C637.335 175.131 632.443 90.27 632.252 86.9564ZM621.513 243.973C621.504 243.986 621.504 244.001 621.519 244.02C621.517 244.005 621.515 243.989 621.513 243.973Z" fill="black"/>
<path d="M779.801 238.968C779.801 238.968 749.589 251.126 734.549 253.872C717.281 257.026 696.214 254.125 680.801 250.083C665.387 246.041 641.28 246.546 621.914 240.988L617.172 240.483L616.579 268.02C616.672 269.441 617.916 270.783 620.04 271.986L620.266 268.622L623.416 269.862L623.117 273.406C624.623 273.983 626.35 274.512 628.256 274.984L628.566 271.105L631.646 271.452L631.383 275.677C633.003 275.996 634.719 276.278 636.512 276.519L636.71 272.214L639.868 272.399L639.663 276.887C641.599 277.084 643.602 277.235 645.655 277.333L645.567 272.907L648.863 273.136L648.826 277.445C650.44 277.478 652.074 277.48 653.721 277.447L653.825 273.254L656.987 273.283L656.884 277.34C658.991 277.24 661.108 277.082 663.214 276.862C663.609 277.872 663.411 262.714 663.411 262.714C663.411 262.714 671.908 263.977 684.95 266.504C697.992 269.03 731.783 274.84 778.813 255.136L780.591 254.125L779.801 238.968Z" fill="black" stroke="black" stroke-width="0.108569"/>
<path opacity="0.266" d="M620.823 231.884C620.851 236.323 621.057 240.453 621.513 243.973C622.027 243.307 656.093 251.075 666.178 250.083C676.453 249.072 707.675 259.683 719.927 259.178C732.178 258.672 775.651 244.525 775.651 244.525C775.651 244.525 775.713 241.468 775.608 237.67C728.415 256.735 709.326 252.81 693.843 250.336C678.034 247.809 633.178 241.999 626.854 238.968C623.688 237.45 621.86 234.476 620.823 231.884ZM621.513 243.973C621.504 243.986 621.504 244.001 621.519 244.02C621.517 244.005 621.515 243.989 621.513 243.973Z" fill="black"/>
<path d="M780.074 250.962L774.862 252.416L776.168 260.067L781.381 258.613L780.074 250.962Z" fill="black"/>
<path d="M772.368 254.246L767.155 255.7L768.461 263.351L773.674 261.897L772.368 254.246Z" fill="black"/>
<path d="M763.486 257.543L758.269 258.973L759.553 266.63L764.77 265.201L763.486 257.543Z" fill="black"/>
<path d="M754.75 260.153L749.518 261.488L750.716 269.168L755.949 267.833L754.75 260.153Z" fill="black"/>
<path d="M746.407 262.49L741.152 263.665L742.208 271.379L747.463 270.204L746.407 262.49Z" fill="black"/>
<path d="M737.486 264.86L732.19 265.682L732.928 273.456L738.225 272.634L737.486 264.86Z" fill="black"/>
<path d="M729.067 266.214L723.758 266.894L724.369 274.687L729.678 274.007L729.067 266.214Z" fill="black"/>
<path d="M719.441 266.985L714.112 267.309L714.403 275.131L719.732 274.808L719.441 266.985Z" fill="black"/>
<path d="M676.575 112.596C678.172 112.247 679.193 109.915 678.855 107.386C678.518 104.858 676.949 103.091 675.351 103.44C673.754 103.789 672.733 106.121 673.071 108.65C673.408 111.178 674.977 112.945 676.575 112.596Z" fill="black"/>
<path d="M686.63 104.064H678.923C677.232 104.064 675.86 105.817 675.86 107.98C675.86 110.143 677.232 111.896 678.923 111.896H686.63C688.322 111.896 689.693 110.143 689.693 107.98C689.693 105.817 688.322 104.064 686.63 104.064Z" fill="#784421"/>
<path d="M677.563 129.775C679.16 129.426 680.181 127.094 679.843 124.565C679.505 122.037 677.937 120.27 676.339 120.619C674.742 120.967 673.721 123.3 674.058 125.828C674.396 128.357 675.965 130.124 677.563 129.775Z" fill="black"/>
<path d="M687.618 121.243H679.911C678.22 121.243 676.849 122.996 676.849 125.159C676.849 127.321 678.22 129.074 679.911 129.074H687.618C689.31 129.074 690.681 127.321 690.681 125.159C690.681 122.996 689.31 121.243 687.618 121.243Z" fill="#784421"/>
<path d="M679.121 147.792C680.662 147.15 681.407 144.653 680.786 142.214C680.165 139.775 678.412 138.318 676.871 138.959C675.33 139.601 674.585 142.098 675.206 144.537C675.827 146.976 677.58 148.433 679.121 147.792Z" fill="black"/>
<path d="M688.101 137.483L680.476 138.914C678.802 139.228 677.645 141.217 677.89 143.357C678.136 145.496 679.692 146.976 681.365 146.662L688.99 145.232C690.664 144.918 691.822 142.929 691.576 140.789C691.331 138.649 689.775 137.169 688.101 137.483Z" fill="#784421"/>
<path d="M683.034 166.352C684.334 165.115 684.416 162.444 683.218 160.386C682.02 158.329 679.995 157.664 678.695 158.901C677.395 160.138 677.313 162.809 678.511 164.866C679.709 166.924 681.734 167.589 683.034 166.352Z" fill="black"/>
<path d="M688.969 152.918L682.1 157.386C680.593 158.367 679.993 160.725 680.76 162.652C681.527 164.579 683.371 165.347 684.879 164.366L691.747 159.898C693.255 158.917 693.855 156.559 693.088 154.632C692.321 152.705 690.476 151.937 688.969 152.918Z" fill="#784421"/>
<path d="M689.934 181.372C691.133 179.978 691.011 177.31 689.661 175.412C688.312 173.514 686.245 173.105 685.046 174.499C683.847 175.892 683.969 178.561 685.319 180.459C686.669 182.357 688.735 182.765 689.934 181.372Z" fill="black"/>
<path d="M694.813 167.26L688.319 172.565C686.894 173.73 686.477 176.151 687.388 177.974C688.299 179.796 690.193 180.329 691.618 179.164L698.112 173.859C699.537 172.694 699.954 170.273 699.043 168.45C698.132 166.628 696.238 166.095 694.813 167.26Z" fill="#784421"/>
<path d="M700.357 194.475C701.503 193.01 701.282 190.352 699.863 188.538C698.444 186.725 696.364 186.442 695.219 187.908C694.073 189.373 694.295 192.031 695.714 193.844C697.133 195.658 699.212 195.94 700.357 194.475Z" fill="black"/>
<path d="M704.704 180.081L698.416 185.777C697.036 187.027 696.709 189.471 697.687 191.236C698.665 193.001 700.577 193.418 701.957 192.167L708.245 186.472C709.626 185.221 709.952 182.777 708.974 181.013C707.996 179.248 706.084 178.831 704.704 180.081Z" fill="#784421"/>
<path d="M712.124 205.127C712.981 203.369 712.297 200.844 710.594 199.486C708.892 198.128 706.817 198.452 705.959 200.21C705.101 201.968 705.786 204.494 707.488 205.851C709.19 207.209 711.266 206.885 712.124 205.127Z" fill="black"/>
<path d="M713.82 189.851L708.698 197.213C707.574 198.829 707.687 201.304 708.951 202.741C710.215 204.179 712.151 204.034 713.275 202.418L718.397 195.056C719.521 193.44 719.408 190.965 718.144 189.528C716.88 188.091 714.944 188.236 713.82 189.851Z" fill="#784421"/>
<path d="M618.16 87.1386C618.16 87.1386 618.753 117.706 619.741 118.212C620.729 118.717 652.345 116.949 653.926 116.696C655.507 116.443 671.908 113.159 671.513 85.6228C671.118 84.3597 638.908 79.5598 618.16 87.1386Z" fill="#552200" stroke="black" stroke-width="0.108569"/>
<path opacity="0.36" d="M622.332 85.8164C620.901 86.2082 619.506 86.6469 618.16 87.1386C618.16 87.1386 618.753 117.707 619.741 118.212C620.478 118.589 638.232 117.701 647.876 117.121C640.681 115.401 626.164 113.969 623.495 109.875C621.11 106.216 621.923 91.4518 622.332 85.8164Z" fill="black"/>
<path d="M850.317 462.696C850.317 462.696 847.12 496.182 850.052 511.775C856.671 546.977 856.671 581.501 856.671 581.501L864.349 581.163C864.349 581.163 863.025 493.159 865.143 489.097C867.261 485.036 880.234 496.544 883.941 504.329C897.476 522.377 894.352 552.614 902.738 569.993C906.71 577.778 909.622 581.163 912.27 582.178C914.917 583.193 952.248 579.132 959.926 574.393C967.604 569.654 969.457 555.777 969.722 551.715C969.986 547.654 969.986 547.315 969.986 547.315C969.986 547.315 934.509 563.223 920.477 557.469C895.05 547.813 899.203 516.89 884.205 495.19C876.792 484.697 866.732 470.82 850.317 462.696Z" fill="#531717"/>
<path d="M861.101 428.829C861.022 428.831 860.957 428.838 860.907 428.849C845.022 439.68 851.111 463.035 851.111 463.035L851.155 463.119C867.076 471.295 876.919 484.877 884.205 495.19C899.203 516.89 895.05 547.813 920.477 557.469C933.526 562.82 965.081 549.454 969.445 547.552C968.445 510.53 941.128 523.96 941.128 523.96V524.975C932.921 538.176 913.858 531.407 909.622 522.945C905.386 514.483 903.533 497.897 891.619 465.065C880.077 433.259 863.566 428.771 861.101 428.829Z" fill="#FF6600"/>
<path opacity="0.185" d="M850.069 449.774C849.558 457.071 851.111 463.035 851.111 463.035L851.155 463.12C867.075 471.295 876.919 484.877 884.205 495.19C899.203 516.89 895.05 547.813 920.477 557.469C933.526 562.82 965.081 549.454 969.445 547.553C969.386 545.383 969.237 543.39 969.008 541.554C917.103 563.945 911.898 543.755 904.592 531.745C897.179 519.56 893.472 500.944 886.588 488.42C880.91 478.09 857.058 455.577 850.069 449.774Z" fill="black"/>
<path d="M898.667 557.341C899.682 561.981 900.947 566.281 902.738 569.993C906.71 577.778 909.622 581.162 912.27 582.178C914.917 583.193 952.248 579.132 959.926 574.393C963.129 572.416 965.315 568.849 966.798 565.067C933.287 577.505 914.434 578.264 908.828 573.378C905.821 570.756 901.828 563.627 898.667 557.341ZM864.269 575.267L856.574 575.824C856.669 579.426 856.671 581.501 856.671 581.501L864.349 581.163C864.349 581.163 864.315 578.864 864.269 575.267Z" fill="black"/>
<path opacity="0.442" d="M928.949 540.526C928.949 540.526 939.714 536.987 943.405 532.269C947.096 527.55 957.554 523.618 960.629 527.943C963.705 532.269 956.323 542.885 928.949 540.526Z" fill="url(#paint8_linear_28_2453)"/>
<path d="M941.922 535.569C941.922 535.569 947.985 533.576 950.064 530.918C952.143 528.261 958.032 526.046 959.765 528.482C961.497 530.918 957.339 536.898 941.922 535.569Z" fill="url(#paint9_linear_28_2453)"/>
<path opacity="0.338" d="M857.995 444.418C857.995 444.418 869.379 457.957 874.939 464.389C880.499 470.82 882.617 478.604 885.794 481.651C888.971 484.697 890.56 475.22 887.118 469.804C883.676 464.389 875.733 455.25 857.995 444.418Z" fill="url(#paint10_linear_28_2453)"/>
<path d="M871.306 455.508C871.306 455.508 881.457 472.104 884.304 476.547C887.152 480.991 888.178 478.06 887.808 475.972C887.438 473.884 887.438 473.884 887.438 473.884C887.438 473.884 874.258 458.604 871.306 455.508Z" fill="url(#paint11_linear_28_2453)"/>
<path d="M1036.79 254.746C1036.79 254.746 1034.27 270.83 1034.99 275.425C1035.71 280.021 1041.82 284.616 1056.2 283.697C1070.57 282.778 1183.08 281.399 1190.27 275.425C1197.46 269.451 1198.54 263.477 1197.46 259.801C1196.38 256.125 1197.1 255.206 1188.11 257.963C1179.13 260.72 1129.16 266.235 1118.02 265.315C1106.88 264.396 1067.34 254.746 1036.79 254.746Z" fill="#E6E6E6"/>
<path d="M1083.16 174.327L1079.56 177.085C1079.56 177.085 1081 189.032 1075.97 195.466C1070.93 201.899 1052.96 196.385 1048.65 195.006C1044.33 193.628 1042.18 180.761 1040.02 178.922C1037.86 177.084 1036.79 181.68 1036.43 183.978C1036.07 186.275 1041.82 204.197 1036.07 218.903C1030.32 233.608 1038.58 254.747 1038.58 254.747C1038.58 254.747 1038.62 254.759 1038.62 254.759C1068.9 255.129 1107.1 264.415 1118.02 265.316C1129.16 266.235 1179.13 260.72 1188.11 257.963C1191.58 256.898 1193.6 256.384 1194.84 256.363L1195.3 255.665C1199.14 231.111 1171.47 228.167 1157.2 226.255C1138.73 223.779 1124.13 211.09 1108.68 200.98C1095.1 192.1 1093.22 189.032 1088.91 184.896C1084.59 180.761 1083.16 174.327 1083.16 174.327Z" fill="#37C871"/>
<path d="M1093.6 211.629L1092.52 213.237C1092.52 213.237 1092.44 213.392 1092.44 213.406L1090.09 214.156L1091.26 215.868C1091.09 216.213 1090.92 216.57 1090.72 216.974L1088.83 217.258L1089.59 219.284C1089.5 219.474 1089.4 219.682 1089.3 219.878L1087.13 219.785L1087.98 222.547C1087.8 222.912 1087.61 223.277 1087.42 223.656L1085.78 223.806L1086.43 225.633C1086.29 225.899 1086.16 226.168 1086.02 226.439L1083.8 226.793L1084.67 229.086C1084.49 229.43 1084.31 229.776 1084.13 230.125H1082.45L1083.07 232.171C1082.89 232.508 1082.72 232.843 1082.54 233.181L1080.66 233.342L1081.38 235.365C1081.21 235.684 1081.04 236.004 1080.87 236.323L1078.86 236.903L1079.55 238.753C1079.43 238.967 1079.31 239.177 1079.2 239.39L1077.15 239.66L1077.92 241.685C1077.64 242.175 1077.36 242.658 1077.09 243.137L1075.26 243.337L1076.03 244.953C1075.83 245.3 1075.63 245.641 1075.43 245.979H1073.47L1074.13 248.102C1073.88 248.505 1073.63 248.895 1073.39 249.278L1071.85 249.081L1071.93 251.487C1071.82 251.636 1071.72 251.778 1071.62 251.923L1069.51 251.723L1069.89 254.229C1069.68 254.49 1069.47 254.736 1069.27 254.961L1067.27 254.136L1068.39 255.906L1067.29 257.065C1070.93 257.542 1074.52 258.066 1078.04 258.613C1078.59 257.803 1079.16 256.951 1079.79 256.016L1082.54 255.055L1081.82 253.102L1084.34 254.136L1083.08 251.024C1083.22 250.823 1083.34 250.627 1083.48 250.424L1086.41 249.655L1085.02 248.038C1085.14 247.844 1085.26 247.65 1085.39 247.454L1087.85 247.702L1087.12 244.729C1087.19 244.618 1087.26 244.51 1087.33 244.398L1089.46 244.6L1088.55 242.443C1088.71 242.192 1088.87 241.936 1089.02 241.683L1090.9 241.843L1090.15 239.847C1090.33 239.559 1090.5 239.272 1090.68 238.982L1092.88 239.545L1091.92 236.922C1092.09 236.638 1092.25 236.351 1092.42 236.066L1094.14 236.443L1093.43 234.348C1093.66 233.962 1093.88 233.576 1094.11 233.189L1096.29 233.112L1095.14 231.383C1095.26 231.172 1095.38 230.962 1095.5 230.752L1097.46 230.584L1096.39 229.156C1096.62 228.752 1096.84 228.351 1097.06 227.948L1098.72 227.827L1098.54 227.138L1098.07 226.08C1098.3 225.644 1098.53 225.21 1098.76 224.777L1100.34 224.84L1099.63 223.096C1099.84 222.676 1100.05 222.257 1100.26 221.841L1102.13 221.623L1101.73 219.322L1103.48 217.832L1093.6 211.629ZM1108.72 220.89L1107.64 222.498C1107.64 222.498 1107.57 222.653 1107.56 222.667L1105.22 223.417L1106.38 225.129C1106.21 225.474 1106.04 225.831 1105.84 226.235L1103.96 226.519L1104.72 228.545C1104.62 228.735 1104.52 228.943 1104.42 229.139L1102.25 229.046L1103.1 231.808C1102.92 232.173 1102.74 232.538 1102.55 232.917L1100.9 233.067L1101.55 234.894C1101.42 235.16 1101.28 235.429 1101.14 235.7L1098.93 236.054L1099.79 238.347C1099.61 238.691 1099.44 239.037 1099.25 239.386H1097.58L1098.19 241.432C1098.02 241.769 1097.84 242.104 1097.66 242.442L1095.78 242.603L1096.51 244.626C1096.33 244.945 1096.16 245.265 1095.99 245.584L1093.98 246.164L1094.67 248.014C1094.55 248.228 1094.44 248.438 1094.32 248.651L1092.27 248.921L1093.04 250.946C1092.76 251.436 1092.49 251.919 1092.21 252.398L1090.39 252.598L1091.16 254.214C1090.95 254.561 1090.75 254.902 1090.55 255.24H1088.59L1089.25 257.363C1089 257.766 1088.76 258.156 1088.51 258.539L1086.97 258.342L1087.03 260.087C1091.32 260.821 1095.25 261.525 1098.98 262.202L1098.21 260.285C1098.34 260.084 1098.47 259.888 1098.6 259.685L1101.53 258.916L1100.14 257.299C1100.26 257.105 1100.39 256.911 1100.51 256.715L1102.97 256.963L1102.25 253.99C1102.32 253.879 1102.39 253.771 1102.46 253.659L1104.59 253.861L1103.68 251.704C1103.83 251.453 1103.99 251.197 1104.15 250.944L1106.02 251.104L1105.27 249.108C1105.45 248.82 1105.62 248.533 1105.8 248.243L1108 248.806L1107.04 246.183C1107.21 245.899 1107.38 245.612 1107.55 245.327L1109.26 245.704L1108.56 243.609C1108.78 243.223 1109.01 242.837 1109.23 242.45L1111.42 242.373L1110.27 240.644C1110.39 240.433 1110.5 240.223 1110.62 240.013L1112.58 239.845L1111.52 238.417C1111.74 238.013 1111.96 237.612 1112.18 237.209L1113.84 237.088L1113.66 236.399L1113.19 235.341C1113.42 234.905 1113.65 234.471 1113.88 234.038L1115.46 234.101L1114.75 232.357C1114.96 231.937 1115.18 231.518 1115.38 231.102L1117.26 230.884L1116.86 228.583L1118.6 227.093L1108.72 220.89ZM1126.13 227.474L1125.12 229.155C1125.12 229.155 1125.06 229.315 1125.05 229.329L1122.74 230.241L1123.98 231.869C1123.82 232.226 1123.67 232.594 1123.49 233.011L1121.62 233.425L1122.46 235.396C1122.37 235.592 1122.28 235.806 1122.19 236.009L1120.02 236.067L1120.99 238.766C1120.82 239.143 1120.65 239.52 1120.48 239.911L1118.84 240.175L1119.57 241.954C1119.45 242.229 1119.32 242.508 1119.2 242.787L1117 243.295L1117.96 245.524C1117.79 245.881 1117.63 246.238 1117.47 246.599L1115.79 246.715L1116.49 248.716C1116.33 249.064 1116.17 249.411 1116.01 249.761L1114.13 250.052L1114.94 252.022C1114.79 252.353 1114.63 252.684 1114.47 253.014L1112.49 253.732L1113.26 255.532C1113.15 255.753 1113.04 255.972 1112.93 256.192L1110.9 256.604L1111.75 258.573C1111.49 259.081 1111.24 259.582 1110.99 260.079L1109.17 260.405L1110.01 261.967C1109.82 262.327 1109.63 262.681 1109.44 263.033L1107.49 263.169L1107.71 263.769C1112.13 264.547 1115.71 265.125 1118.02 265.316C1118.59 265.363 1119.29 265.389 1120.05 265.403L1119.11 264.424C1119.22 264.222 1119.34 264.02 1119.46 263.816L1121.92 263.893L1121.07 260.974C1121.14 260.859 1121.2 260.746 1121.27 260.63L1123.4 260.683L1122.4 258.592C1122.55 258.331 1122.69 258.065 1122.84 257.801L1124.72 257.831L1123.89 255.89C1124.05 255.591 1124.21 255.291 1124.38 254.99L1126.6 255.399L1125.53 252.847C1125.68 252.551 1125.84 252.253 1126 251.956L1127.72 252.215L1126.93 250.172C1127.14 249.771 1127.35 249.369 1127.56 248.968L1129.74 248.739L1128.51 247.092C1128.63 246.874 1128.74 246.655 1128.84 246.437L1130.8 246.134L1129.67 244.782C1129.88 244.363 1130.08 243.947 1130.28 243.53L1131.93 243.294L1131.73 242.618L1131.21 241.595C1131.42 241.143 1131.63 240.694 1131.84 240.245L1133.42 240.199L1132.64 238.507C1132.84 238.072 1133.03 237.64 1133.22 237.21L1135.08 236.863L1134.58 234.592L1136.27 232.984L1126.13 227.474Z" fill="#00AA44"/>
<path d="M1166.36 227.578C1165.74 233.573 1163.09 249.457 1151.85 263.231C1167.54 261.596 1183.42 259.404 1188.11 257.963C1191.58 256.898 1193.6 256.384 1194.84 256.363L1195.3 255.665C1198.42 235.722 1180.75 230.035 1166.36 227.578Z" fill="#00AA44"/>
<path d="M1039.09 178.498C1037.54 178.464 1036.73 182.039 1036.43 183.977C1036.07 186.275 1041.82 204.197 1036.07 218.902C1035.22 221.056 1034.68 223.349 1034.37 225.693C1037.91 227.545 1044.31 229.132 1049.01 220.281C1055.84 207.414 1068.42 213.388 1072.37 210.631C1076.05 208.067 1079.1 202.722 1076.33 194.968C1076.21 195.137 1076.09 195.303 1075.97 195.465C1070.93 201.899 1052.96 196.385 1048.65 195.006C1044.33 193.627 1042.18 180.76 1040.02 178.922C1039.68 178.635 1039.37 178.505 1039.09 178.498Z" fill="#00AA44"/>
<path opacity="0.708" d="M1193.78 271.977L1188.47 273.128C1177.87 275.425 1154.69 277.034 1140.31 278.413C1125.93 279.791 1101.49 279.332 1087.29 279.332C1051.98 282.841 1043.46 278.864 1034.86 272.759C1034.86 272.766 1034.86 272.771 1034.86 272.778C1034.86 273.018 1034.86 273.248 1034.86 273.471C1034.86 273.512 1034.86 273.552 1034.86 273.592C1034.87 273.779 1034.87 273.957 1034.88 274.13C1034.88 274.189 1034.88 274.249 1034.88 274.306C1034.89 274.466 1034.9 274.616 1034.91 274.762C1034.92 274.813 1034.92 274.869 1034.93 274.919C1034.93 274.952 1034.93 274.984 1034.94 275.016C1034.95 275.16 1034.97 275.298 1034.99 275.425C1035.01 275.569 1035.04 275.712 1035.07 275.856C1035.07 275.856 1035.07 275.856 1035.07 275.856C1035.1 276 1035.14 276.143 1035.19 276.285C1035.23 276.429 1035.28 276.571 1035.33 276.713C1035.42 276.941 1035.53 277.167 1035.65 277.392C1035.67 277.447 1035.7 277.503 1035.73 277.558C1035.81 277.698 1035.89 277.836 1035.98 277.974C1036.07 278.112 1036.16 278.248 1036.26 278.383C1036.31 278.451 1036.37 278.518 1036.42 278.586C1036.48 278.652 1036.53 278.72 1036.58 278.786C1038.04 280.513 1040.51 282.012 1044.18 282.914C1044.75 283.053 1045.34 283.178 1045.96 283.287C1046.27 283.342 1046.59 283.392 1046.92 283.439C1046.92 283.439 1046.92 283.439 1046.92 283.439C1046.95 283.443 1046.98 283.446 1047.01 283.45C1047.63 283.538 1048.28 283.612 1048.96 283.669C1049.67 283.729 1050.41 283.771 1051.19 283.794C1051.96 283.818 1052.76 283.822 1053.6 283.806C1054.43 283.791 1055.3 283.755 1056.2 283.697C1057.99 283.583 1061.32 283.46 1065.79 283.323C1070.26 283.186 1075.86 283.033 1082.2 282.857C1099.64 282.374 1122.66 281.713 1143 280.708C1146.63 280.53 1150.16 280.34 1153.56 280.138C1157.22 279.921 1160.72 279.691 1164.02 279.445C1167.84 279.161 1171.39 278.858 1174.56 278.532C1177.74 278.205 1180.54 277.855 1182.88 277.482C1182.99 277.464 1183.1 277.446 1183.22 277.427C1184.02 277.296 1184.77 277.161 1185.45 277.024C1185.91 276.932 1186.35 276.838 1186.75 276.743C1187.28 276.62 1187.76 276.493 1188.18 276.365C1188.89 276.151 1189.45 275.93 1189.86 275.702C1190.02 275.611 1190.16 275.519 1190.27 275.425C1190.47 275.258 1190.67 275.092 1190.86 274.925C1190.92 274.867 1190.99 274.81 1191.05 274.752C1191.18 274.636 1191.31 274.52 1191.44 274.404C1191.5 274.344 1191.57 274.284 1191.63 274.224C1191.74 274.122 1191.85 274.021 1191.95 273.919C1192.03 273.845 1192.11 273.77 1192.19 273.695C1192.33 273.551 1192.48 273.408 1192.61 273.264C1192.72 273.159 1192.81 273.055 1192.91 272.95C1192.97 272.894 1193.02 272.838 1193.07 272.782C1193.17 272.675 1193.27 272.568 1193.36 272.462C1193.4 272.412 1193.45 272.363 1193.49 272.313C1193.59 272.202 1193.69 272.091 1193.78 271.98C1193.78 271.979 1193.78 271.978 1193.78 271.977L1193.78 271.977Z" fill="black"/>
<path opacity="0.282" d="M1036.79 254.746C1036.79 254.746 1034.27 270.83 1034.99 275.425C1035.71 280.021 1041.82 284.616 1056.2 283.697C1058.93 283.523 1065.23 283.33 1073.66 283.094C1045.79 275.238 1039.16 260.271 1037.71 254.751C1037.4 254.749 1037.09 254.746 1036.79 254.746V254.746Z" fill="url(#paint12_linear_28_2453)"/>
<path opacity="0.273" d="M1037.35 251.112C1038.05 253.382 1038.58 254.747 1038.58 254.747C1038.58 254.747 1038.62 254.759 1038.62 254.759C1068.9 255.129 1107.1 264.415 1118.02 265.316C1129.16 266.235 1179.13 260.72 1188.11 257.963C1191.58 256.898 1193.6 256.384 1194.84 256.363L1195.3 255.665C1195.43 254.887 1195.51 254.131 1195.57 253.396C1171.5 261.182 1138.16 263.248 1123.41 263.248C1107.96 263.248 1083.33 257.044 1074.53 255.206C1066.66 253.563 1042.87 251.793 1037.35 251.112Z" fill="black"/>
<path opacity="0.14" d="M1036.99 181.407C1036.72 182.311 1036.54 183.257 1036.43 183.977C1036.07 186.275 1041.82 204.197 1036.07 218.902C1030.32 233.607 1038.58 254.746 1038.58 254.746C1038.58 254.746 1038.62 254.759 1038.62 254.759C1065.04 255.081 1097.47 262.188 1112.57 264.596C1104.69 258.645 1093.77 252.735 1079.92 250.61C1048.47 245.785 1042.72 227.404 1041.1 222.578C1039.48 217.753 1041.28 208.103 1041.46 200.75C1041.57 196.076 1038.93 187.237 1036.99 181.407Z" fill="black"/>
<path d="M1087.3 183.097C1086.89 185.552 1086.13 190.193 1085.85 191.79C1085.49 193.857 1082.08 195.696 1082.62 200.521C1083.15 205.346 1100.05 220.74 1116.94 226.714C1133.84 232.688 1140.67 234.067 1143.18 233.838C1145.7 233.608 1148.22 232.459 1149.47 227.863C1149.81 226.637 1150.05 225.639 1150.23 224.812C1134.94 220.544 1122.14 209.785 1108.68 200.98C1095.1 192.1 1093.22 189.032 1088.91 184.896C1088.32 184.332 1087.78 183.725 1087.3 183.097Z" fill="#00AA88"/>
<path d="M1093.38 204.966C1092.9 205.982 1090.23 206.297 1088.31 204.819C1086.39 203.341 1085.93 200.63 1086.41 199.614C1086.89 198.598 1088.84 198.972 1090.76 200.45C1092.68 201.928 1093.85 203.949 1093.38 204.966Z" fill="black"/>
<path d="M1093.67 188.388L1088.58 198.778C1087.83 200.293 1088.19 202.288 1089.38 203.233C1090.57 204.178 1092.14 203.715 1092.88 202.199L1097.97 191.81C1098.72 190.294 1098.35 188.3 1097.17 187.355C1095.98 186.41 1094.41 186.873 1093.67 188.388Z" fill="white"/>
<path d="M1102.26 212.095C1101.84 213.149 1099.19 213.686 1097.2 212.372C1095.21 211.059 1094.61 208.392 1095.04 207.338C1095.46 206.284 1097.42 206.494 1099.42 207.808C1101.41 209.122 1102.69 211.041 1102.26 212.095Z" fill="black"/>
<path d="M1101.71 195.528L1097.16 206.322C1096.49 207.896 1096.95 209.856 1098.19 210.7C1099.42 211.543 1100.96 210.95 1101.62 209.376L1106.18 198.583C1106.84 197.008 1106.38 195.048 1105.14 194.205C1103.91 193.361 1102.37 193.954 1101.71 195.528Z" fill="white"/>
<path d="M1111.67 217.959C1111.29 219.038 1108.67 219.742 1106.63 218.557C1104.58 217.371 1103.89 214.745 1104.27 213.665C1104.65 212.586 1106.62 212.672 1108.67 213.857C1110.71 215.043 1112.05 216.879 1111.67 217.959Z" fill="black"/>
<path d="M1110.47 201.448L1106.35 212.516C1105.74 214.131 1106.28 216.059 1107.55 216.823C1108.81 217.588 1110.33 216.898 1110.93 215.283L1115.05 204.215C1115.66 202.6 1115.12 200.672 1113.85 199.908C1112.59 199.144 1111.08 199.833 1110.47 201.448Z" fill="white"/>
<path d="M1121.69 223.728C1121.37 224.786 1118.89 225.637 1116.89 224.641C1114.89 223.646 1114.11 221.182 1114.44 220.123C1114.76 219.065 1116.64 219.014 1118.65 220.01C1120.65 221.005 1122.01 222.67 1121.69 223.728Z" fill="black"/>
<path d="M1119.86 208.021L1116.37 218.884C1115.86 220.469 1116.46 222.277 1117.7 222.922C1118.94 223.567 1120.36 222.805 1120.87 221.22L1124.36 210.357C1124.87 208.772 1124.27 206.964 1123.03 206.319C1121.79 205.674 1120.37 206.436 1119.86 208.021Z" fill="white"/>
<path d="M1131.93 227.412C1131.67 228.497 1129.24 229.568 1127.19 228.756C1125.14 227.943 1124.23 225.554 1124.49 224.469C1124.76 223.385 1126.63 223.165 1128.69 223.977C1130.74 224.79 1132.19 226.328 1131.93 227.412Z" fill="black"/>
<path d="M1128.98 213.218L1126.35 223.409C1125.96 224.895 1126.59 226.495 1127.76 226.981C1128.92 227.467 1130.18 226.655 1130.56 225.169L1133.2 214.978C1133.58 213.492 1132.95 211.892 1131.78 211.406C1130.62 210.92 1129.36 211.732 1128.98 213.218Z" fill="white"/>
<path d="M1144.37 229.805C1144.19 230.917 1141.86 232.276 1139.75 231.715C1137.65 231.155 1136.57 228.886 1136.75 227.775C1136.93 226.663 1138.79 226.217 1140.89 226.778C1142.99 227.338 1144.55 228.694 1144.37 229.805Z" fill="black"/>
<path d="M1138.5 226.17L1139.9 218.931C1140.22 217.274 1141.49 216.228 1142.79 216.602C1144.09 216.976 1144.93 218.624 1144.61 220.282L1143.21 227.52C1142.89 229.177 1141.62 230.223 1140.32 229.849C1139.01 229.475 1138.18 227.827 1138.5 226.17Z" fill="white"/>
<path opacity="0.302" d="M1036.45 183.805C1036.45 183.862 1036.43 183.923 1036.43 183.978C1036.07 186.275 1041.82 204.197 1036.07 218.902C1030.32 233.608 1038.58 254.746 1038.58 254.746C1038.58 254.746 1038.62 254.759 1038.62 254.759C1038.01 254.751 1037.39 254.746 1036.79 254.746C1036.79 254.746 1034.27 270.83 1034.99 275.425C1035.32 277.579 1036.85 279.733 1039.85 281.319L1039.37 280.337C1032.76 266.852 1040 254.991 1040 254.991L1041.15 254.667C1041.15 254.667 1033.65 237.12 1036.57 226.721C1039.49 216.323 1039.49 202.838 1039.62 197.314C1039.71 193.544 1037.72 187.357 1036.45 183.805Z" fill="black"/>
<path d="M1039.09 178.498C1037.54 178.464 1036.73 182.039 1036.43 183.977C1036.07 186.275 1041.82 204.197 1036.07 218.902C1035.22 221.056 1034.68 223.349 1034.37 225.693C1037.91 227.545 1044.31 229.132 1049.01 220.281C1055.84 207.414 1068.42 213.388 1072.37 210.631C1076.05 208.067 1079.1 202.722 1076.33 194.968C1076.21 195.137 1076.09 195.303 1075.97 195.465C1070.93 201.899 1052.96 196.385 1048.65 195.006C1044.33 193.627 1042.18 180.76 1040.02 178.922C1039.68 178.635 1039.37 178.505 1039.09 178.498Z" fill="#00AA44"/>
<path opacity="0.383" d="M1036.47 185.02C1037.04 189.607 1041.28 205.576 1036.07 218.902C1035.22 221.057 1034.68 223.349 1034.37 225.693C1035.03 226.038 1035.79 226.374 1036.62 226.635C1036.84 226.016 1037.31 224.375 1038.35 220.223C1040.38 212.099 1042.29 207.387 1040.38 198.939C1039.27 193.988 1037.64 188.64 1036.47 185.02Z" fill="#343434"/>
<path opacity="0.591" d="M1163.66 227.146C1165.86 227.93 1168.21 228.779 1170.52 229.646C1177 232.083 1194.54 241.831 1187.17 257.266C1186.94 257.735 1186.86 257.908 1186.65 258.349C1187.21 258.216 1187.71 258.086 1188.11 257.963C1191.58 256.898 1193.6 256.384 1194.84 256.363L1195.3 255.665C1198.62 234.45 1178.42 229.37 1163.66 227.146Z" fill="url(#paint13_linear_28_2453)"/>
<path d="M462.533 112.821C462.533 112.821 447.482 167.955 448.929 181.646L450.376 195.337C450.376 195.337 457.902 201.258 474.399 212.359C490.897 223.46 500.738 251.212 506.527 260.092C512.315 268.973 548.784 276.373 563.835 266.753C578.886 257.132 579.754 246.401 579.175 244.921C578.596 243.441 582.938 239.001 571.65 235.67C560.362 232.34 553.59 234.265 540.68 214.579C523.439 188.288 513.559 155.682 524.472 124.292C524.347 122.38 495.523 114.226 488.003 128.363L485.109 128.733L478.741 126.142C478.741 126.142 470.926 110.971 462.533 112.821Z" fill="#FF2A7F"/>
<path opacity="0.38" d="M560.843 232.9C558.387 241.336 555.138 256.689 559.376 268.913C561.004 268.318 562.505 267.603 563.835 266.752C578.886 257.132 579.754 246.401 579.175 244.921C578.596 243.441 582.938 239 571.65 235.67C567.636 234.486 564.194 233.964 560.843 232.9Z" fill="white"/>
<path opacity="0.195" d="M457.752 131.373C453.484 148.709 448.031 173.152 448.929 181.646L450.376 195.337C450.376 195.337 457.902 201.258 474.399 212.359C475.118 212.842 475.823 213.359 476.517 213.903C485.192 169.477 464.778 139.96 457.752 131.373Z" fill="white"/>
<path opacity="0.263" d="M448.841 178.764C448.817 179.858 448.843 180.828 448.929 181.646L450.376 195.337C450.376 195.337 457.902 201.258 474.399 212.358C490.897 223.459 500.738 251.211 506.527 260.092C512.316 268.973 548.784 276.373 563.835 266.752C578.886 257.132 579.754 246.401 579.175 244.921C578.839 244.061 580.162 242.202 579.118 240.143C572.293 254.861 561.923 259.001 555.555 262.208C548.801 265.61 520.353 264.825 510.734 248.079C501.115 231.334 489.653 213.542 469.392 198.366C457.434 189.41 451.609 182.734 448.841 178.764Z" fill="black"/>
<path d="M451.548 195.328L450.736 195.491L455.007 264.163C459.566 268.481 462.458 267.116 465.427 266.013L467.164 210.508C487.269 220.158 496.201 250.489 507.685 267.123C513.473 270.823 549.074 280.814 563.835 270.453C578.596 260.092 580.405 251.027 579.826 248.806C579.593 247.911 579.362 247.205 579.166 246.671C577.974 251 573.891 260.324 563.835 266.753C548.784 276.373 512.316 268.973 506.527 260.092C500.738 251.211 490.897 223.459 474.399 212.359C457.902 201.258 451.604 195.861 451.604 195.861L451.548 195.328Z" fill="#550022"/>
<path d="M454.567 258.626L455.007 264.162C459.566 268.481 462.458 267.116 465.427 266.013L465.551 262.05C459.752 261.884 456.517 260.166 454.567 258.626Z" fill="black"/>
<path opacity="0.312" d="M464.098 112.666C463.58 112.657 463.057 112.706 462.533 112.822C462.533 112.822 447.482 167.955 448.929 181.646L450.376 195.337C450.376 195.337 450.691 195.58 451.153 195.933L450.772 196.068L455.007 264.163C456.013 265.115 456.938 265.79 457.8 266.254C457.74 255.378 452.992 202.046 452.504 196.6C452.341 196.467 452.364 196.485 452.241 196.384C451.777 191.121 452.265 181.978 452.61 176.911C453.019 170.893 455.475 158.334 456.294 148.653C456.956 140.816 462.177 120.643 464.468 112.683C464.345 112.675 464.222 112.669 464.098 112.666V112.666Z" fill="black"/>
<path d="M480.007 126.657L479.625 127.721C479.625 127.721 476.555 190.255 476.555 196.535V202.814L481.876 207.001C481.876 207.001 484.742 137.14 486.788 128.768L486.851 128.51L485.109 128.733L480.007 126.657Z" fill="#800033"/>
<path d="M464.558 464.788C454.97 481.044 445.347 503.834 448.785 523.369L450.608 532.603C450.608 532.603 452.239 536.624 463.084 537.009C473.929 537.394 486.86 526.675 504.551 532.341C522.242 538.007 550.623 549.244 565.648 550.377C585.589 552.9 598.469 556.937 614.868 544.129C614.868 544.129 621.535 532.071 617.11 527.839C612.684 523.607 602.564 522.41 586.943 517.767C571.323 513.123 534.405 471.357 524.428 465.406C514.451 459.456 510.516 462.191 508.716 463.788C506.917 465.385 500.689 486.138 489.559 483.566C478.429 480.994 477.862 464.925 464.558 464.788Z" fill="#0055D4"/>
<path d="M611.849 559.453C604.998 564.888 595.621 568.119 583.855 569.136C583.806 570.421 584.056 572.36 585.483 572.77C592.944 573.888 613.067 566.219 611.897 560.099L611.849 559.453ZM503.417 556.881C496.811 556.623 490.597 557.37 484.961 558.444L485.914 563.582C490.238 564.342 499.402 562.869 503.101 561.121L503.417 556.881ZM523.509 561.129C523.234 562.407 523.018 564.389 524.003 565.389C525.525 566.934 541.956 571.804 544.446 570.341C545.839 569.523 546.33 567.84 546.494 566.514C539.291 565.173 531.625 563.378 523.509 561.129ZM477.881 559.992C470.648 561.735 464.735 563.529 460.693 563.415C456.583 563.299 453.779 561.832 451.856 559.63L451.842 561.755L451.728 565.337C451.728 565.337 455.734 573.276 478.23 563.933C477.966 563.696 477.895 561.644 477.881 559.992ZM478.23 563.933C478.279 563.977 478.335 563.96 478.398 563.863C478.342 563.887 478.287 563.909 478.23 563.933ZM549.768 567.097C549.644 568.301 549.69 569.975 550.717 570.791C556.293 574.823 577.43 575.614 579.296 572.429C579.065 571.495 579.014 570.346 579.021 569.426C570.401 569.722 560.634 568.946 549.768 567.097Z" fill="#004BBA"/>
<path opacity="0.377" d="M496.714 519.379C483.96 518.34 469.525 526.27 464.048 527.858C458.916 529.347 451.818 525.368 448.548 523.255C448.618 523.73 448.694 524.203 448.78 524.673L450.598 533.53C450.598 533.53 452.224 537.387 463.039 537.756C473.855 538.126 486.75 527.844 504.392 533.279C522.035 538.714 550.337 549.492 565.321 550.579C585.207 552.999 598.051 556.871 614.405 544.585C614.405 544.585 621.054 533.02 616.641 528.961C616.478 528.811 616.305 528.666 616.127 528.524C614.947 531.844 612.208 537.68 606.436 542.553C597.826 549.822 582.493 548.709 570.484 547.422C558.475 546.136 520.023 530.466 505.962 522.176C503.106 520.492 499.965 519.644 496.714 519.379Z" fill="black"/>
<path d="M524.965 487.783C524.965 487.783 527.099 505.733 522.15 505.661C515.89 505.571 499.208 500.493 484.51 506.281C469.811 512.069 458.172 515.071 450.335 513.837L448.304 513.517C448.243 515.307 448.267 517.084 448.383 518.843C454.116 519.732 463.007 520.612 469.428 518.931C479.658 516.254 502.589 510.223 508.621 513.26C514.654 516.297 522.68 522.545 529.086 519.319C535.066 516.306 541.489 514.22 539.151 498.969C536.812 483.719 536.429 490.582 536.429 490.582L524.965 487.783Z" fill="white"/>
<path d="M616.622 531.26C621.429 543.563 605.059 550.866 603.481 551.602C593.203 556.391 580.346 552.859 565.328 551.572C550.311 550.285 521.897 539.345 504.193 533.777C486.489 528.209 473.627 538.043 462.79 537.52C451.952 536.996 450.303 533.209 450.303 533.209L450.031 531.953C450.031 531.953 449.985 531.967 449.985 531.967C449.985 531.967 446.998 539.002 447.864 545.961C448.73 552.921 451.337 560.233 460.777 560.637C470.217 561.041 489.725 551.372 512.706 555.974C568.024 573.753 604.543 572.389 618.869 552.11C621.147 545.42 620.071 533.176 618.346 532.218L616.622 531.26Z" fill="#87CDDE"/>
<path d="M620.013 542.233C595.734 576.681 539.505 550.971 505.425 541.208C487.758 535.495 479.85 543.371 465.118 545.261C456.512 546.365 450.988 544.02 447.878 541.879C447.771 543.268 447.777 544.724 447.965 546.177C448.174 547.788 448.512 549.249 449.035 550.546L452.709 551.604C465.886 555.399 481.021 548.258 493.291 546.94C505.561 545.623 524.677 552.864 557.319 560.581C574.451 564.355 606.896 565.693 619.918 545.585C619.996 544.466 620.025 543.335 620.013 542.233L620.013 542.233Z" fill="#75B1C0"/>
<path opacity="0.172" d="M462.4 469.206C453.598 485.348 445.667 506.423 448.85 524.705L450.687 534.106C450.687 534.106 452.329 538.201 463.254 538.593C472.119 538.911 482.367 531.787 495.437 532.168C491.812 505.225 467.294 475.01 462.4 469.206Z" fill="black"/>
<path d="M459.459 475.59C456.049 482.568 452.991 490.188 450.96 497.947C451.43 498.703 451.996 499.231 452.634 499.508C454.068 500.119 455.77 499.425 457.368 497.58C458.965 495.735 460.325 492.89 461.15 489.67C461.91 486.697 462.158 483.621 461.847 481.026C461.535 478.431 460.686 476.496 459.459 475.59Z" fill="#87CDDE"/>
<path opacity="0.237" d="M466.235 465.075C465.835 465.04 465.422 465.02 464.997 465.015C455.194 481.674 445.355 505.026 448.87 525.045L450.735 534.507C450.735 534.507 452.401 538.627 463.491 539.022C465.135 539.08 466.827 538.885 468.574 538.535C465.914 533.167 462.321 525.657 459.954 519.669C455.793 509.147 459.924 496.809 461.514 485.612C462.853 476.177 467.575 467.969 469.033 465.61C468.168 465.347 467.239 465.164 466.235 465.075Z" fill="black"/>
<path d="M515.064 460.994C511.669 460.686 509.845 462.043 508.776 462.997C508.021 463.67 506.484 467.727 504.137 472.022C525.131 490.939 551.268 507.376 574.988 517.452C580.759 518.764 583.072 517.551 584.264 516.15C567.39 508.01 533.934 470.273 524.505 464.624C520.447 462.193 517.387 461.204 515.064 460.994Z" fill="#87CDDE"/>
<path opacity="0.38" d="M492.362 557.995C489.82 558.292 487.364 558.697 485.011 559.162L485.965 564.507C488.782 565.022 493.644 564.551 497.722 563.66C496.008 561.694 494.137 559.665 492.362 557.995ZM477.92 560.773C470.677 562.587 464.755 564.452 460.706 564.334C456.59 564.214 453.783 562.687 451.856 560.397L451.842 562.607L451.728 566.333C451.728 566.333 455.74 574.592 478.27 564.873C478.005 564.627 477.934 562.492 477.92 560.773ZM478.27 564.873C478.319 564.919 478.375 564.901 478.438 564.801C478.381 564.825 478.326 564.848 478.27 564.873Z" fill="url(#paint14_linear_28_2453)"/>
<path opacity="0.273" d="M450.194 533.439C450.194 533.439 450.148 533.456 450.148 533.456C450.148 533.456 447.114 541.071 447.942 548.544C448.77 556.016 451.342 563.839 460.802 564.121C467.311 564.314 478.625 559.3 492.545 557.645C491.263 556.417 490.035 555.38 488.962 554.705C483.455 551.236 472.233 551.257 463.422 546.884C454.611 542.511 455.952 538.69 455.952 538.69L455.292 538.037C451.238 536.715 450.459 534.787 450.459 534.787L450.194 533.439Z" fill="url(#paint15_linear_28_2453)"/>
<path opacity="0.393" d="M451.858 560.638L451.844 562.918L451.729 566.761C451.729 566.761 453.112 569.67 458.789 570.087C458.404 568.485 457.655 566.398 456.253 563.835C454.429 563.125 452.991 562.017 451.858 560.638Z" fill="black"/>
<path opacity="0.393" d="M450.179 534.348C450.179 534.348 449.904 534.531 449.8 534.6C448.994 537.015 447.308 542.952 447.959 548.818C448.649 555.044 450.531 561.507 456.475 563.805C455.819 562.613 455.025 561.322 454.056 559.927C447.55 550.562 450.179 534.348 450.179 534.348Z" fill="black"/>
<path opacity="0.37" d="M514.811 460.951C511.413 460.643 509.588 462.004 508.518 462.959C508.169 463.271 507.648 464.32 506.962 465.771C508.594 464.875 511.214 464.193 514.936 465.412C521.885 467.686 569.038 509.908 576.279 514.17C583.519 518.431 603.245 521.675 607.296 527.004C609.368 529.729 608.298 539.244 604.555 550.146C607.896 548.755 611.294 546.753 614.858 543.952C614.858 543.952 621.537 531.796 617.104 527.53C612.67 523.264 602.532 522.057 586.884 517.376C571.236 512.695 534.253 470.589 524.258 464.591C520.197 462.154 517.136 461.162 514.811 460.951Z" fill="white"/>
<path d="M519.894 477.968C522.544 479.769 525.169 479.96 525.756 478.395C526.343 476.83 524.671 474.1 522.02 472.299C519.37 470.498 516.746 470.307 516.159 471.872C515.571 473.438 517.244 476.167 519.894 477.968Z" fill="white"/>
<path d="M520.327 476.845C522.227 478.139 524.153 478.155 524.63 476.88C525.107 475.605 523.954 473.522 522.054 472.227C520.154 470.932 518.228 470.916 517.751 472.192C517.274 473.467 518.427 475.55 520.327 476.845Z" fill="black"/>
<path d="M524.693 461.662L519.851 470.773C519.064 472.253 519.401 474.32 520.603 475.389C521.804 476.459 523.416 476.127 524.202 474.647L529.044 465.536C529.831 464.056 529.494 461.989 528.293 460.92C527.091 459.85 525.479 460.182 524.693 461.662Z" fill="#0055D4"/>
<path d="M531.626 488.184C534.319 489.853 536.939 489.906 537.479 488.303C538.018 486.7 536.274 484.048 533.582 482.379C530.89 480.71 528.269 480.657 527.73 482.26C527.19 483.863 528.934 486.515 531.626 488.184Z" fill="white"/>
<path d="M532.025 487.037C533.955 488.236 535.874 488.15 536.313 486.844C536.751 485.539 535.543 483.508 533.613 482.308C531.684 481.109 529.764 481.195 529.326 482.501C528.887 483.807 530.096 485.837 532.025 487.037Z" fill="black"/>
<path d="M535.971 471.644L531.381 481.027C530.635 482.551 531.019 484.593 532.238 485.588C533.457 486.582 535.049 486.153 535.795 484.629L540.385 475.246C541.131 473.722 540.747 471.68 539.528 470.685C538.309 469.691 536.716 470.12 535.971 471.644Z" fill="#0055D4"/>
<path d="M543.303 497.797C545.765 499.323 548.162 499.372 548.655 497.906C549.149 496.44 547.554 494.014 545.091 492.488C542.629 490.961 540.233 490.913 539.739 492.379C539.245 493.845 540.841 496.271 543.303 497.797Z" fill="white"/>
<path d="M543.668 496.748C545.432 497.845 547.188 497.766 547.589 496.572C547.99 495.378 546.885 493.52 545.12 492.423C543.356 491.326 541.6 491.405 541.199 492.599C540.798 493.793 541.903 495.651 543.668 496.748Z" fill="black"/>
<path d="M547.276 482.67L543.078 491.252C542.396 492.645 542.747 494.513 543.862 495.423C544.977 496.332 546.434 495.94 547.116 494.546L551.314 485.964C551.996 484.57 551.645 482.703 550.53 481.793C549.415 480.883 547.958 481.276 547.276 482.67Z" fill="#0055D4"/>
<path d="M555.16 505.739C557.672 507.053 560.055 506.879 560.481 505.35C560.908 503.822 559.218 501.517 556.706 500.203C554.194 498.889 551.811 499.063 551.384 500.592C550.958 502.12 552.648 504.425 555.16 505.739Z" fill="white"/>
<path d="M555.475 504.653C557.274 505.597 559.014 505.353 559.36 504.109C559.707 502.864 558.529 501.091 556.729 500.147C554.93 499.203 553.19 499.446 552.844 500.691C552.497 501.935 553.675 503.709 555.475 504.653Z" fill="black"/>
<path d="M554.647 499.26L557.587 492.804C558.241 491.366 559.627 490.807 560.764 491.602C561.901 492.397 562.346 494.235 561.691 495.673L558.752 502.129C558.097 503.567 556.712 504.126 555.575 503.331C554.438 502.536 553.992 500.698 554.647 499.26Z" fill="#0055D4"/>
<path d="M567.696 512.491C570.246 513.566 572.604 513.139 572.963 511.538C573.322 509.937 571.545 507.768 568.995 506.693C566.444 505.619 564.086 506.046 563.728 507.647C563.369 509.248 565.146 511.417 567.696 512.491Z" fill="white"/>
<path d="M567.959 511.365C569.784 512.136 571.5 511.705 571.791 510.404C572.082 509.102 570.838 507.422 569.012 506.651C567.187 505.88 565.471 506.311 565.18 507.612C564.889 508.914 566.133 510.594 567.959 511.365Z" fill="black"/>
<path d="M566.896 506.07L568.981 501.246C569.618 499.772 570.921 499.037 572.077 499.709C573.232 500.382 573.79 502.199 573.153 503.673L571.067 508.497C570.43 509.971 569.127 510.706 567.972 510.033C566.816 509.361 566.259 507.544 566.896 506.07Z" fill="#0055D4"/>
<path d="M648.05 382.648L650.735 500.733C650.735 500.733 643.217 533 646.439 552.224C646.976 555.656 693.696 552.224 707.122 557.716C720.547 563.208 798.951 552.91 798.951 552.91V547.418C798.951 547.418 800.089 538.057 793.343 531.938C780.991 520.736 761.68 509.24 733.435 492.494C730.213 487.689 734.509 377.155 734.509 377.155L648.05 382.648Z" fill="#FF7F2A"/>
<path d="M650.633 501.193C650.078 503.625 643.347 533.778 646.439 552.224C646.772 554.35 664.831 553.843 681.717 554.454L681.614 551.537C676.536 514.847 657.313 503.921 650.633 501.193Z" fill="#DEAA87"/>
<path d="M684.688 385.295C684.688 386.994 685.257 530.932 685.067 542.098C684.878 553.264 684.878 554.234 684.878 554.234H689.055C689.055 554.234 690.194 390.149 688.485 384.567C688.675 382.139 688.675 382.139 688.675 382.139L684.688 385.295Z" fill="#D45500"/>
<path opacity="0.273" d="M797.731 538.506C792.067 539.816 765.74 545.613 752.469 546.952C738.039 548.409 702.155 544.04 687.346 541.612C675.738 539.71 654.417 539.303 645.654 539.214C645.572 543.837 645.782 548.302 646.439 552.224C646.976 555.656 693.696 552.224 707.121 557.716C720.547 563.208 798.951 552.91 798.951 552.91V547.418C798.951 547.418 799.465 543.157 797.731 538.506Z" fill="black"/>
<path d="M645.576 382.868C646.335 382.868 734.242 374.129 735.571 376.314C736.9 378.498 737.849 381.411 732.913 382.139C727.977 382.868 645.576 387.965 645.576 387.965C645.576 387.965 642.918 385.295 645.576 382.868Z" fill="#D45500"/>
<path d="M687.915 505.203L732.533 489.668C732.533 489.668 734.242 491.125 733.862 493.552C733.483 495.979 687.915 511.029 687.915 511.029V505.203Z" fill="#D45500"/>
<path opacity="0.282" d="M652.75 382.349L648.05 382.648L650.735 500.733C650.735 500.733 643.217 533.001 646.439 552.224C646.691 553.832 657.109 553.934 669.464 554.153C668.093 549.959 663.701 536.386 661.207 526.822C658.253 515.494 659.864 512.404 658.79 506.225C657.716 500.046 656.642 494.554 657.717 471.898C658.791 449.242 656.374 451.988 655.568 432.422C654.841 414.762 653.098 387.693 652.75 382.349Z" fill="black"/>
<path d="M798.624 549.241C798.246 549.241 797.743 549.306 797.071 549.477C794.386 550.164 766.462 556.343 757.601 556.686C748.74 557.029 714.908 554.969 700.409 552.223C685.91 549.477 644.56 549.477 644.56 549.477C642.651 556.686 643.189 563.895 643.754 571.103L648.521 571.462C649.339 569.526 650.732 568.359 652.225 568.357C653.864 568.36 655.369 569.762 656.137 572.006C657.095 572.062 658.048 572.112 658.993 572.156C659.781 570.022 661.245 568.704 662.831 568.7C664.481 568.703 665.994 570.126 666.756 572.393C667.737 572.408 668.698 572.42 669.626 572.425C670.421 570.333 671.871 569.047 673.438 569.044C674.989 569.048 676.427 570.309 677.227 572.369C681.398 572.285 684.031 572.141 684.03 572.133L684.98 565.108C701.335 567.015 713.185 569.125 729.798 570.596C730.618 569.172 731.787 568.347 733.023 568.32C734.438 568.296 735.779 569.32 736.632 571.076C737.783 571.136 738.955 571.184 740.148 571.224C740.965 569.51 742.253 568.487 743.632 568.459C745.081 568.432 746.451 569.505 747.3 571.331C748.441 571.327 749.607 571.312 750.79 571.288C751.61 569.616 752.882 568.624 754.241 568.597C755.566 568.573 756.833 569.469 757.692 571.041C758.869 570.981 760.067 570.912 761.287 570.833C761.815 568.623 763.078 567.073 764.615 566.75C764.761 566.719 764.908 566.7 765.056 566.692C766.518 566.617 767.954 567.655 768.897 569.468C769.774 569.282 770.844 569.051 771.832 568.838C772.382 566.705 773.625 565.22 775.126 564.907C775.271 564.876 775.418 564.857 775.566 564.849C776.916 564.782 778.25 565.664 779.192 567.246C780.319 567 781.351 566.776 782.481 566.528C783.086 564.639 784.256 563.354 785.637 563.063C785.783 563.033 785.93 563.013 786.078 563.006C787.302 562.945 788.519 563.667 789.441 564.998C795.133 563.745 799.891 562.693 799.891 562.693L799.756 549.821C799.756 549.821 799.757 549.241 798.624 549.241Z" fill="#502D16"/>
<path d="M829.175 186.333C829.175 186.333 808.35 216.612 817.254 253.742C817.283 254.504 847.87 256.685 861.898 254.582C875.927 252.48 914.623 271.22 933.614 268.644C952.604 266.069 983.852 258.501 992.004 254.664C1000.16 250.828 1004.59 249.19 1004.59 249.19C1004.59 249.19 1011.65 236.733 1000.21 230.687C988.769 224.641 963.192 228.609 957.522 226.856C951.852 225.103 927.596 214.926 912.093 200.346C896.59 185.766 890.095 173.386 890.095 173.386C890.095 173.386 888.431 173.29 886.639 175.245C884.847 177.2 863.755 211.328 838.477 190.799C838.891 190.759 835.821 181.111 829.175 186.333Z" fill="#454545"/>
<path d="M889.765 171.333C889.197 171.406 887.95 171.734 886.631 173.177C886.317 173.519 885.401 174.862 883.986 176.713C882.684 183.07 879.113 192.536 876.926 196.082C873.408 201.785 861.459 214.939 839.742 206.281C833.195 202.121 826.973 197.415 823.523 194.721C822.839 196.232 822.136 197.886 821.442 199.674C825.043 202.534 834.728 209.263 838.914 211.727C845.489 215.597 867.916 215.833 875.87 206.406C882.795 198.2 888.554 176.897 889.765 171.333Z" fill="#222222"/>
<path opacity="0.195" d="M832.895 182.203C831.884 182.3 830.747 182.768 829.482 183.772C829.482 183.772 808.339 214.813 817.379 252.877C817.402 253.483 836.071 254.962 851.097 254.592C843.502 245.376 831.867 229.827 829.767 218.76C827.231 205.398 832.535 188.609 834.748 182.454C834.186 182.238 833.569 182.138 832.895 182.203Z" fill="url(#paint16_linear_28_2453)"/>
<path opacity="0.425" d="M830.786 182.706C830.45 182.906 830.105 183.14 829.749 183.42C829.749 183.42 808.267 214.6 817.452 252.835C817.459 253.023 819.285 253.295 822.246 253.57L822.184 253.435C810.41 227.863 827.395 189.952 830.786 182.706Z" fill="black" fill-opacity="0.971014"/>
<path d="M929.739 213.44C931.049 222.319 931.882 236.566 925.963 245.602C924.398 245.076 902.516 238.203 883.021 258.839C884.615 259.244 886.246 259.672 887.902 260.113C892.498 255.444 902.978 247.348 918.918 249.505L927.333 250.798C927.333 250.798 937.23 240.031 933.752 215.699C932.422 214.977 931.081 214.223 929.739 213.44Z" fill="#222222"/>
<path d="M879.851 257.507C879.851 257.507 891.229 233.547 924.997 241.98C924.981 241.479 924.981 241.479 924.981 241.479C924.981 241.479 929.964 233.607 927.607 212.238C927.831 212.716 927.831 212.716 927.831 212.716" stroke="#222222" stroke-width="0.669425" stroke-dasharray="2.01 2.01"/>
<path d="M954.304 226.846C952.589 233.395 948.306 252.359 951.555 267.846C952.876 267.562 954.205 267.269 955.534 266.971C954.099 261.386 953.055 249.846 957.638 227.94C956.804 227.698 955.676 227.331 954.304 226.846Z" fill="#222222"/>
<path d="M960.547 228.384C960.547 228.384 954.914 256.575 959.477 265.553" stroke="#222222" stroke-width="0.669425" stroke-dasharray="2.01 2.01"/>
<path opacity="0.075" d="M889.687 173.516C888.98 174.231 888.283 174.938 888.283 174.938C888.283 174.938 899.577 203.51 912.553 210.772C925.528 218.035 953.593 233.388 957.168 234.333C960.743 235.279 986.321 234.624 989.194 238.99C991.504 242.5 989.735 252.07 968.349 262.896C978.901 260.293 988.029 257.594 991.917 255.749C1000.09 251.867 1004.54 250.21 1004.54 250.21C1004.54 250.21 1011.62 237.606 1000.15 231.489C988.672 225.371 963.015 229.387 957.327 227.613C951.639 225.839 927.306 215.543 911.754 200.791C896.209 186.047 889.693 173.528 889.687 173.516Z" fill="white"/>
<path d="M817.879 255.057L817.783 255.124C817.783 255.124 819.037 270.949 821.185 272.959C823.334 274.968 849.992 279.626 860.657 277.418C864.769 276.794 864.563 276.813 864.563 276.813C864.563 276.813 864.877 269.181 866.899 268.014C868.92 266.847 904.516 277.794 913.464 279.178C922.412 280.561 929.888 282.878 950.268 278.978C974.909 274.262 1003.81 261.401 1005.96 257.82C1009.14 254.585 1007.84 248.429 1007.14 246.287C1007.02 245.938 1006.92 245.665 1006.83 245.421C1003.93 251.307 996.483 253.014 992.727 254.713C984.602 258.404 952.909 267.453 933.982 269.931C915.054 272.41 876.487 254.379 862.505 256.402C848.523 258.425 818.038 256.326 818.009 255.593C817.964 255.414 817.922 255.236 817.879 255.057Z" fill="black" stroke="black" stroke-width="0.113175"/>
<path d="M825.822 192.357C825.822 192.357 864.105 227.161 880.701 182.871L882.21 180.226" stroke="#222222" stroke-width="0.840523" stroke-dasharray="2.52 2.52"/>
<path d="M891.336 179.888C891.336 179.888 889.678 194.279 885.13 200.066C894.588 209.489 905.1 219.827 913.999 229.054C913.999 229.054 921.724 217.587 918.275 209.586C918.345 205.934 901.366 195.587 891.336 179.888Z" fill="#999999"/>
<path d="M893.575 196.527C894.773 197.853 896.386 197.984 897.178 196.818C897.971 195.652 897.642 193.632 896.445 192.306C895.247 190.979 893.634 190.849 892.841 192.015C892.049 193.18 892.378 195.201 893.575 196.527Z" fill="black"/>
<path d="M898.881 183.417L894.652 191.424C894.074 192.519 894.281 193.982 895.116 194.693C895.951 195.404 897.096 195.093 897.674 193.998L901.903 185.991C902.482 184.896 902.274 183.433 901.439 182.722C900.605 182.011 899.459 182.322 898.881 183.417Z" fill="black"/>
<path d="M899.185 202.584C900.469 203.771 902.088 203.721 902.799 202.472C903.511 201.224 903.046 199.25 901.762 198.063C900.477 196.877 898.859 196.927 898.147 198.176C897.436 199.424 897.9 201.398 899.185 202.584Z" fill="black"/>
<path d="M903.585 188.942L899.909 197.382C899.407 198.537 899.713 199.97 900.593 200.584C901.473 201.198 902.593 200.76 903.096 199.606L906.772 191.165C907.275 190.011 906.969 188.577 906.089 187.963C905.209 187.35 904.088 187.787 903.585 188.942Z" fill="black"/>
<path d="M904.692 207.94C905.977 209.126 907.595 209.076 908.307 207.828C909.018 206.579 908.554 204.605 907.269 203.419C905.985 202.232 904.366 202.283 903.655 203.531C902.943 204.78 903.408 206.753 904.692 207.94Z" fill="black"/>
<path d="M909.093 194.297L905.417 202.738C904.914 203.893 905.22 205.326 906.1 205.94C906.98 206.554 908.101 206.116 908.604 204.962L912.28 196.521C912.782 195.367 912.476 193.933 911.596 193.319C910.716 192.705 909.596 193.143 909.093 194.297Z" fill="black"/>
<path d="M911.016 213.352C912.364 214.418 913.977 214.222 914.62 212.913C915.262 211.604 914.69 209.678 913.342 208.612C911.994 207.546 910.381 207.743 909.738 209.052C909.096 210.361 909.668 212.286 911.016 213.352Z" fill="black"/>
<path d="M914.66 199.353L911.452 208.099C911.013 209.295 911.397 210.696 912.308 211.228C913.22 211.76 914.314 211.221 914.753 210.025L917.961 201.279C918.399 200.083 918.016 198.682 917.104 198.15C916.193 197.618 915.098 198.157 914.66 199.353Z" fill="black"/>
<path opacity="0.149" d="M933.592 261.102C933.592 261.102 972.777 250.416 983.052 243.55C993.326 236.685 1002.28 236.821 1003.32 240.536C1004.51 244.76 996.114 259.776 933.592 261.102Z" fill="url(#paint17_linear_28_2453)"/>
<path opacity="0.506" d="M962.803 255.411C962.803 255.411 985.203 247.208 990.937 242.683C996.672 238.159 1001.88 237.79 1002.61 239.908C1003.44 242.315 999.083 251.506 962.803 255.411Z" fill="url(#paint18_linear_28_2453)"/>
<path d="M1041.36 431.562C1041.36 441.382 1041.6 488.393 1041.93 491.135C1042.67 497.121 1033.04 531.536 1035.74 551.825L1035.4 554.415C1035.4 554.415 1138.73 566.934 1166.42 557.437C1194.11 547.94 1194.44 547.94 1194.44 547.94C1194.44 547.94 1182.96 531.967 1168.78 529.809C1148.88 531.049 1135.41 519.481 1124.88 506.929C1116.44 497 1106.99 458.58 1105.64 442.607L1104.29 426.634C1104.29 426.634 1097.87 426.634 1095.51 431.383C1093.14 436.132 1068.03 446.239 1041.36 431.562Z" fill="#FF0000"/>
<path d="M1039.78 506.567C1037.35 519.977 1034.01 538.797 1035.74 551.825L1035.4 554.415C1035.4 554.415 1057.14 557.045 1083.34 558.98C1079.06 531.579 1045.25 509.916 1039.78 506.567Z" fill="#D60000"/>
<path d="M1156.97 528.983C1154.15 532.851 1147.33 544.171 1149.85 560.305C1156.63 559.751 1162.35 558.834 1166.42 557.437C1194.11 547.94 1194.44 547.94 1194.44 547.94C1181.37 532.567 1175.22 527.566 1156.97 528.983Z" fill="white"/>
<path d="M1194.78 547.077C1194.58 547.341 1194.37 547.493 1194.17 547.575C1194.33 547.788 1194.44 547.94 1194.44 547.94C1194.44 547.94 1194.11 547.94 1166.42 557.437C1139.02 566.836 1037.7 554.692 1035.6 554.438C1034.43 561.334 1034.73 568.117 1034.85 574.657C1033.83 575.961 1120.91 580.882 1132.49 581.211C1143.53 581.524 1168.78 581.006 1197.48 564.17L1200.52 561.754C1200.52 561.755 1197.74 549.364 1194.78 547.077Z" fill="#F3F3F3"/>
<path d="M1034.8 562.612C1034.77 563.451 1034.75 564.287 1034.74 565.12C1093.72 573.591 1140.08 572.33 1140.08 572.33C1140.08 572.33 1140.42 570.604 1139.74 568.661C1123.34 573.14 1043.89 563.711 1034.8 562.612Z" fill="black"/>
<path d="M1194.78 547.077C1194.58 547.341 1194.37 547.493 1194.17 547.575C1194.33 547.788 1194.44 547.94 1194.44 547.94C1194.44 547.94 1194.11 547.94 1166.42 557.437C1160.18 559.576 1150.11 560.597 1138.26 560.898L1138.6 581.238C1151.44 580.971 1173.23 578.397 1197.48 564.17L1200.52 561.754C1200.52 561.754 1197.74 549.364 1194.78 547.077Z" fill="#BEBEBE"/>
<path d="M1104.29 426.634C1104.29 426.634 1097.87 426.634 1095.51 431.383C1095 432.402 1093.44 433.667 1091.05 434.882C1091.69 435.116 1092.29 435.448 1092.81 435.916C1095.68 438.506 1102.77 473.905 1108.84 489.877C1114.92 505.85 1123.53 515.131 1127.08 516.858C1130.33 518.44 1137.26 524.909 1147.23 525.651C1138.29 521.356 1131.07 514.313 1124.88 506.929C1116.44 497 1106.99 458.579 1105.64 442.607L1104.29 426.634Z" fill="#C00000"/>
<path d="M1095.51 431.383C1095.47 431.453 1095.43 431.525 1095.39 431.597C1095.43 431.525 1095.47 431.453 1095.51 431.383ZM1095.34 431.67C1095.31 431.719 1095.27 431.769 1095.23 431.82C1095.27 431.769 1095.31 431.719 1095.34 431.67ZM1095.17 431.907C1095.13 431.953 1095.09 432 1095.06 432.047C1095.09 432 1095.13 431.953 1095.17 431.907ZM1094.97 432.141C1094.93 432.188 1094.89 432.235 1094.84 432.283C1094.89 432.235 1094.93 432.188 1094.97 432.141ZM1094.75 432.381C1094.71 432.426 1094.66 432.472 1094.61 432.517C1094.66 432.472 1094.71 432.426 1094.75 432.381ZM1094.08 432.985C1094.04 433.018 1094 433.05 1093.95 433.083C1094 433.05 1094.04 433.018 1094.08 432.985ZM1093.76 433.231C1093.72 433.262 1093.68 433.293 1093.64 433.325C1093.68 433.293 1093.72 433.262 1093.76 433.231ZM1093.43 433.469C1093.38 433.505 1093.33 433.54 1093.28 433.575C1093.33 433.54 1093.38 433.505 1093.43 433.469ZM1093.06 433.724C1093.02 433.749 1092.99 433.772 1092.95 433.796C1092.99 433.772 1093.02 433.748 1093.06 433.724ZM1091.99 434.378C1091.96 434.396 1091.93 434.414 1091.89 434.431C1091.93 434.414 1091.96 434.396 1091.99 434.378ZM1091.09 434.862C1087.78 436.549 1082.85 438.141 1076.86 438.84C1079.03 445.951 1094.73 497.05 1102.43 509.303C1110.08 521.475 1125.38 531.8 1151.12 540.964C1152.88 535.151 1155.48 531.027 1156.97 528.983C1153.51 528.253 1150.27 527.111 1147.23 525.651C1137.26 524.909 1130.33 518.44 1127.08 516.858C1123.53 515.131 1114.92 505.85 1108.84 489.877C1102.77 473.905 1095.68 438.506 1092.81 435.916C1092.29 435.448 1091.69 435.115 1091.05 434.882C1091.06 434.875 1091.07 434.869 1091.09 434.862ZM1125.97 508.208C1126.09 508.342 1126.2 508.475 1126.32 508.608C1126.2 508.475 1126.09 508.342 1125.97 508.208ZM1127.11 509.509C1127.24 509.656 1127.37 509.802 1127.5 509.949C1127.37 509.802 1127.24 509.656 1127.11 509.509ZM1128.25 510.778C1128.39 510.931 1128.53 511.084 1128.67 511.236C1128.53 511.084 1128.39 510.931 1128.25 510.778ZM1129.45 512.07C1129.59 512.214 1129.72 512.358 1129.86 512.501C1129.72 512.358 1129.59 512.214 1129.45 512.07ZM1130.81 513.47C1130.89 513.558 1130.98 513.647 1131.07 513.734C1130.98 513.647 1130.89 513.558 1130.81 513.47ZM1131.28 513.952C1131.56 514.23 1131.84 514.506 1132.13 514.78C1131.84 514.506 1131.56 514.23 1131.28 513.952ZM1132.29 514.941C1132.6 515.238 1132.91 515.532 1133.23 515.824C1132.91 515.532 1132.6 515.238 1132.29 514.941ZM1133.51 516.088C1133.82 516.369 1134.12 516.648 1134.43 516.924C1134.12 516.648 1133.82 516.369 1133.51 516.088ZM1134.72 517.181C1135 517.427 1135.28 517.671 1135.57 517.913C1135.28 517.671 1135 517.427 1134.72 517.181ZM1135.87 518.172C1136.15 518.411 1136.44 518.647 1136.73 518.881C1136.44 518.647 1136.15 518.411 1135.87 518.172ZM1137.12 519.198C1137.14 519.215 1137.16 519.231 1137.18 519.247C1137.16 519.231 1137.14 519.215 1137.12 519.198ZM1141.58 522.446C1141.6 522.459 1141.62 522.472 1141.64 522.485C1141.62 522.472 1141.6 522.459 1141.58 522.446ZM1142.35 522.941C1142.36 522.952 1142.38 522.964 1142.4 522.975C1142.38 522.964 1142.36 522.952 1142.35 522.941ZM1161.86 529.718C1161.9 529.721 1161.94 529.725 1161.97 529.728C1161.94 529.725 1161.9 529.721 1161.86 529.718ZM1164.06 529.862C1164.1 529.864 1164.15 529.866 1164.19 529.868C1164.15 529.866 1164.1 529.864 1164.06 529.862ZM1167.23 529.879C1167.17 529.881 1167.11 529.882 1167.04 529.884C1167.11 529.882 1167.17 529.881 1167.23 529.879ZM1164.76 529.885C1164.82 529.886 1164.88 529.889 1164.94 529.89C1164.88 529.889 1164.82 529.886 1164.76 529.885Z" fill="#D60000"/>
<path d="M1061.91 493.762C1069.09 493.762 1074.91 486.321 1074.91 477.142C1074.91 467.963 1069.09 460.522 1061.91 460.522C1054.73 460.522 1048.91 467.963 1048.91 477.142C1048.91 486.321 1054.73 493.762 1061.91 493.762Z" fill="white"/>
<path d="M1067.56 487.365L1062.1 482.148L1056.91 487.792L1059.1 479.545L1053.3 474.978L1060.11 475.099L1061.72 466.632L1063.73 474.953L1070.53 474.287L1064.96 479.31L1067.56 487.365Z" fill="black"/>
<path d="M1061.91 461.743C1058.71 461.743 1055.65 463.365 1053.39 466.253C1051.13 469.141 1049.86 473.058 1049.86 477.142C1049.86 481.226 1051.13 485.143 1053.39 488.031C1055.65 490.919 1058.71 492.542 1061.91 492.542C1063.49 492.542 1065.06 492.143 1066.52 491.369C1067.98 490.596 1069.31 489.461 1070.43 488.031C1071.54 486.601 1072.43 484.904 1073.04 483.035C1073.64 481.167 1073.95 479.165 1073.95 477.142C1073.95 475.12 1073.64 473.117 1073.04 471.249C1072.43 469.381 1071.54 467.683 1070.43 466.253C1069.31 464.823 1067.98 463.689 1066.52 462.915C1065.06 462.141 1063.49 461.743 1061.91 461.743ZM1061.91 463.117C1064.82 463.117 1067.61 464.594 1069.67 467.225C1071.72 469.855 1072.88 473.422 1072.88 477.142C1072.88 480.862 1071.72 484.429 1069.67 487.06C1067.61 489.69 1064.82 491.168 1061.91 491.168C1059 491.168 1056.21 489.69 1054.15 487.06C1052.09 484.429 1050.94 480.862 1050.94 477.142C1050.94 473.422 1052.09 469.855 1054.15 467.225C1056.21 464.594 1059 463.117 1061.91 463.117Z" fill="#D40000"/>
<path d="M1194.44 546.465C1188.75 548.35 1166.31 555.545 1158.37 557.128C1124.83 562.209 1061.96 554.503 1035.68 552.298L1035.4 554.415C1035.4 554.415 1038.91 554.839 1044.73 555.465C1059.68 557.985 1085.67 559.083 1098.81 560.312C1122.57 561.649 1147.39 562.732 1161.43 558.76C1163.15 558.322 1164.93 557.84 1166.75 557.325C1194.07 547.955 1195.46 547.778 1195.46 547.778C1195.46 547.778 1195.09 547.273 1194.44 546.465Z" fill="black"/>
<path d="M1039.62 511.678C1039.62 511.678 1061.23 518.153 1080.82 557.221" stroke="black" stroke-width="0.577629" stroke-dasharray="1.73 1.73"/>
<path d="M1088.93 454.224C1089.75 456.818 1091.55 458.518 1092.95 458.021C1094.34 457.525 1094.81 455.02 1093.98 452.427C1093.16 449.834 1091.36 448.134 1089.96 448.63C1088.57 449.126 1088.1 451.631 1088.93 454.224Z" fill="black"/>
<path d="M1105.73 443.64L1092.81 449.249C1091.51 449.813 1090.82 451.614 1091.26 453.272L1091.26 453.272C1091.7 454.931 1093.11 455.819 1094.4 455.256L1107.32 449.646C1108.62 449.083 1109.32 447.282 1108.87 445.623C1108.43 443.964 1107.03 443.077 1105.73 443.64Z" fill="white"/>
<path d="M1092.51 467.961C1093.34 470.554 1095.13 472.254 1096.53 471.758C1097.92 471.262 1098.39 468.757 1097.56 466.164C1096.74 463.57 1094.94 461.87 1093.54 462.367C1092.15 462.863 1091.69 465.368 1092.51 467.961Z" fill="black"/>
<path d="M1109.31 457.376L1096.39 462.986C1095.09 463.549 1094.4 465.35 1094.84 467.009L1094.84 467.009C1095.28 468.667 1096.69 469.555 1097.99 468.992L1110.9 463.382C1112.2 462.819 1112.9 461.018 1112.46 459.359L1112.46 459.359C1112.02 457.701 1110.61 456.813 1109.31 457.376Z" fill="white"/>
<path d="M1097.15 482.15C1098.12 484.659 1100.01 486.186 1101.38 485.561C1102.74 484.935 1103.06 482.394 1102.09 479.885C1101.12 477.376 1099.22 475.849 1097.86 476.474C1096.5 477.1 1096.18 479.641 1097.15 482.15Z" fill="black"/>
<path d="M1100.73 476.826L1112.46 470.48C1113.73 469.795 1115.18 470.546 1115.71 472.164L1115.71 472.164C1116.25 473.782 1115.66 475.636 1114.4 476.321L1102.67 482.666C1101.4 483.351 1099.95 482.601 1099.42 480.983L1099.42 480.983C1098.88 479.365 1099.47 477.51 1100.73 476.826Z" fill="white"/>
<path d="M1102.77 497.285C1103.87 499.707 1105.83 501.073 1107.16 500.334C1108.49 499.596 1108.68 497.034 1107.58 494.611C1106.48 492.189 1104.52 490.824 1103.19 491.562C1101.86 492.3 1101.67 494.863 1102.77 497.285Z" fill="black"/>
<path d="M1106.07 491.672L1116.47 485.051C1117.7 484.268 1119.18 484.889 1119.8 486.459L1119.8 486.459C1120.42 488.028 1119.93 489.934 1118.7 490.717L1108.3 497.338C1107.07 498.121 1105.59 497.5 1104.97 495.93L1104.97 495.93C1104.35 494.361 1104.84 492.455 1106.07 491.672Z" fill="white"/>
<path d="M1110.86 511.499C1112.18 513.732 1114.27 514.781 1115.51 513.841C1116.76 512.901 1116.7 510.329 1115.38 508.096C1114.06 505.862 1111.98 504.814 1110.73 505.754C1109.48 506.694 1109.54 509.266 1110.86 511.499Z" fill="black"/>
<path d="M1113.61 505.412L1121.97 498.018C1123.1 497.019 1124.65 497.434 1125.41 498.896L1125.41 498.896C1126.17 500.357 1125.86 502.295 1124.72 503.294L1116.36 510.688C1115.23 511.688 1113.68 511.272 1112.92 509.811L1112.92 509.811C1112.16 508.35 1112.48 506.412 1113.61 505.412Z" fill="white"/>
<path d="M1123.27 524.905C1124.95 526.7 1127.16 527.121 1128.21 525.846C1129.26 524.57 1128.75 522.081 1127.07 520.286C1125.39 518.492 1123.17 518.071 1122.12 519.346C1121.07 520.621 1121.59 523.11 1123.27 524.905Z" fill="black"/>
<path d="M1124.86 518.184L1130.63 509.904C1131.54 508.591 1133.14 508.563 1134.14 509.766L1134.14 509.766C1135.14 510.97 1135.16 512.937 1134.25 514.249L1128.48 522.53C1127.57 523.842 1125.97 523.871 1124.97 522.667L1124.97 522.667C1123.97 521.464 1123.95 519.497 1124.86 518.184Z" fill="white"/>
<path d="M1041.65 435.916C1041.65 435.916 1062.08 454.047 1093.82 438.506" stroke="black" stroke-width="0.577629" stroke-dasharray="1.73 1.73"/>
<path d="M1080.65 439.153C1080.65 439.153 1096.18 495.705 1103.1 505.202C1110.03 514.7 1121.51 529.809 1151.73 537.579" stroke="black" stroke-width="0.478465" stroke-dasharray="1.91 1.91"/>
<defs>
<radialGradient id="paint0_radial_28_2453" cx="0" cy="0" r="1" gradientUnits="userSpaceOnUse" gradientTransform="translate(529.997 569.751) scale(115.446 13.5878)">
<stop/>
</radialGradient>
<radialGradient id="paint1_radial_28_2453" cx="0" cy="0" r="1" gradientUnits="userSpaceOnUse" gradientTransform="translate(720.208 567.877) scale(105.551 13.5878)">
<stop/>
</radialGradient>
<radialGradient id="paint2_radial_28_2453" cx="0" cy="0" r="1" gradientUnits="userSpaceOnUse" gradientTransform="translate(908.954 575.374) scale(87.5927 15.462)">
<stop/>
</radialGradient>
<radialGradient id="paint3_radial_28_2453" cx="0" cy="0" r="1" gradientUnits="userSpaceOnUse" gradientTransform="translate(1119.32 576.31) scale(109.582 15.462)">
<stop/>
</radialGradient>
<radialGradient id="paint4_radial_28_2453" cx="0" cy="0" r="1" gradientUnits="userSpaceOnUse" gradientTransform="translate(1114.93 278.316) scale(116.179 15.462)">
<stop/>
</radialGradient>
<radialGradient id="paint5_radial_28_2453" cx="0" cy="0" r="1" gradientUnits="userSpaceOnUse" gradientTransform="translate(895.394 278.316) scale(130.473 15.462)">
<stop/>
</radialGradient>
<radialGradient id="paint6_radial_28_2453" cx="0" cy="0" r="1" gradientUnits="userSpaceOnUse" gradientTransform="translate(694.92 273.63) scale(117.645 15.462)">
<stop/>
</radialGradient>
<radialGradient id="paint7_radial_28_2453" cx="0" cy="0" r="1" gradientUnits="userSpaceOnUse" gradientTransform="translate(497.745 267.071) scale(105.918 12.6507)">
<stop/>
</radialGradient>
<linearGradient id="paint8_linear_28_2453" x1="958.784" y1="530.303" x2="931.466" y2="537.844" gradientUnits="userSpaceOnUse">
<stop stop-color="white"/>
</linearGradient>
<linearGradient id="paint9_linear_28_2453" x1="958.725" y1="529.811" x2="943.34" y2="534.059" gradientUnits="userSpaceOnUse">
<stop stop-color="white"/>
</linearGradient>
<linearGradient id="paint10_linear_28_2453" x1="886.324" y1="480.974" x2="854.222" y2="455.088" gradientUnits="userSpaceOnUse">
<stop stop-color="white"/>
</linearGradient>
<linearGradient id="paint11_linear_28_2453" x1="886.939" y1="476.882" x2="866.604" y2="459.801" gradientUnits="userSpaceOnUse">
<stop stop-color="white"/>
</linearGradient>
<linearGradient id="paint12_linear_28_2453" x1="1035.71" y1="268.762" x2="1071.12" y2="280.741" gradientUnits="userSpaceOnUse">
<stop/>
</linearGradient>
<linearGradient id="paint13_linear_28_2453" x1="1192" y1="239.881" x2="1175.98" y2="247.419" gradientUnits="userSpaceOnUse">
<stop stop-color="#37C871"/>
</linearGradient>
<linearGradient id="paint14_linear_28_2453" x1="452.61" y1="566.079" x2="506.705" y2="563.299" gradientUnits="userSpaceOnUse">
<stop/>
</linearGradient>
<linearGradient id="paint15_linear_28_2453" x1="448.739" y1="551.219" x2="496.558" y2="551.946" gradientUnits="userSpaceOnUse">
<stop/>
</linearGradient>
<linearGradient id="paint16_linear_28_2453" x1="815.713" y1="231.349" x2="851.794" y2="238.679" gradientUnits="userSpaceOnUse">
<stop/>
</linearGradient>
<linearGradient id="paint17_linear_28_2453" x1="1000.54" y1="241.358" x2="935.658" y2="254.168" gradientUnits="userSpaceOnUse">
<stop stop-color="white"/>
</linearGradient>
<linearGradient id="paint18_linear_28_2453" x1="1001.02" y1="240.527" x2="963.507" y2="250.263" gradientUnits="userSpaceOnUse">
<stop stop-color="white"/>
</linearGradient>
</defs>
</svg>
